<?xml version="1.0" standalone="no"?>
<!DOCTYPE svg PUBLIC "-//W3C//DTD SVG 20010904//EN"
 "http://www.w3.org/TR/2001/REC-SVG-20010904/DTD/svg10.dtd">
<svg version="1.0" xmlns="http://www.w3.org/2000/svg"
 width="512.000000pt" height="512.000000pt" viewBox="0 0 512.000000 512.000000"
 preserveAspectRatio="xMidYMid meet">

<g transform="translate(0.000000,512.000000) scale(0.100000,-0.100000)"
fill="#000000" stroke="none">
<path d="M2320 4929 c-807 -82 -1532 -585 -1889 -1312 -116 -236 -187 -460
-228 -718 -25 -160 -25 -519 0 -679 120 -763 578 -1410 1248 -1764 221 -116
458 -197 719 -243 128 -23 173 -26 380 -27 257 0 362 11 578 64 170 41 307 92
477 175 1287 631 1729 2248 941 3443 -316 479 -799 831 -1355 987 -264 73
-596 102 -871 74z m436 -280 c965 -93 1743 -836 1879 -1794 8 -55 15 -112 15
-127 l0 -28 -225 0 -224 0 -5 33 c-51 338 -134 551 -310 797 -69 97 -230 263
-325 335 -222 169 -507 288 -776 325 -102 14 -348 14 -445 0 -275 -39 -539
-147 -761 -311 l-82 -61 -160 160 -160 160 79 63 c425 338 966 500 1500 448z
m-1514 -1107 c-160 -213 -274 -490 -312 -757 -14 -101 -14 -347 0 -445 59
-420 272 -795 600 -1059 249 -200 494 -302 858 -357 l32 -5 0 -224 0 -225 -27
0 c-16 0 -73 7 -128 15 -1151 164 -1954 1242 -1780 2390 54 353 208 705 434
989 l63 79 161 -161 160 -160 -61 -80z m1544 363 c294 -51 551 -188 761 -408
248 -260 373 -574 373 -937 0 -363 -125 -677 -373 -937 -210 -220 -467 -357
-761 -408 -113 -19 -338 -19 -447 0 -280 48 -515 166 -716 358 -220 210 -357
467 -408 761 -19 115 -19 337 0 452 51 294 188 551 408 761 197 188 436 309
702 357 109 19 350 20 461 1z m1864 -1515 c0 -126 -70 -422 -142 -602 -279
-699 -906 -1194 -1649 -1302 -59 -9 -118 -16 -133 -16 l-26 0 0 225 0 224 33
5 c225 34 391 83 552 161 255 125 483 326 645 569 141 211 220 428 266 734 l5
32 224 0 225 0 0 -30z"/>
<path d="M2492 3430 c-49 -30 -72 -75 -72 -143 0 -53 -2 -60 -22 -65 -54 -14
-181 -86 -223 -128 -27 -26 -60 -73 -78 -112 -28 -59 -32 -78 -32 -152 0 -73
4 -93 28 -142 58 -117 190 -199 425 -262 149 -40 224 -74 248 -112 16 -23 16
-28 1 -59 -11 -24 -32 -42 -66 -60 -50 -25 -192 -55 -261 -55 -35 0 -38 2 -44
35 -20 103 -153 150 -229 79 -36 -33 -47 -63 -47 -122 0 -128 114 -251 248
-270 l47 -7 5 -46 c10 -87 72 -143 149 -136 83 9 131 70 131 168 l0 56 43 13
c123 36 236 129 283 233 37 81 40 205 8 278 -60 130 -183 206 -454 279 -137
37 -187 58 -219 93 -29 32 -23 68 20 108 44 41 111 61 232 66 100 5 107 4 107
-13 0 -30 37 -82 72 -104 64 -39 146 -16 189 52 16 26 19 44 16 89 -12 142
-117 254 -249 267 -48 5 -48 5 -48 41 0 112 -117 186 -208 131z"/>
</g>
</svg>
